<mxfile host="app.diagrams.net" agent="Mozilla/5.0 (X11; Linux x86_64) AppleWebKit/537.36 (KHTML, like Gecko) Chrome/119.0.0.0 Safari/537.36" version="24.7.6">
  <diagram name="Page-1" id="_vTgYbhOH5cA7oKDFazI">
    <mxGraphModel dx="1362" dy="803" grid="1" gridSize="10" guides="1" tooltips="1" connect="1" arrows="1" fold="1" page="1" pageScale="1" pageWidth="827" pageHeight="1169" math="0" shadow="0">
      <root>
        <mxCell id="0" />
        <mxCell id="1" parent="0" />
        <mxCell id="M5KZb2mIDth6haTazwBI-1" value="Client" style="rounded=0;whiteSpace=wrap;html=1;" vertex="1" parent="1">
          <mxGeometry x="40" y="40" width="120" height="40" as="geometry" />
        </mxCell>
        <mxCell id="M5KZb2mIDth6haTazwBI-2" value="" style="endArrow=none;dashed=1;html=1;dashPattern=1 3;strokeWidth=2;rounded=0;entryX=0.5;entryY=1;entryDx=0;entryDy=0;" edge="1" parent="1" target="M5KZb2mIDth6haTazwBI-1">
          <mxGeometry width="50" height="50" relative="1" as="geometry">
            <mxPoint x="100" y="720" as="sourcePoint" />
            <mxPoint x="440" y="390" as="targetPoint" />
          </mxGeometry>
        </mxCell>
        <mxCell id="M5KZb2mIDth6haTazwBI-3" value="Next Js API" style="rounded=0;whiteSpace=wrap;html=1;" vertex="1" parent="1">
          <mxGeometry x="240" y="40" width="120" height="40" as="geometry" />
        </mxCell>
        <mxCell id="M5KZb2mIDth6haTazwBI-4" value="TMDB" style="rounded=0;whiteSpace=wrap;html=1;" vertex="1" parent="1">
          <mxGeometry x="440" y="40" width="120" height="40" as="geometry" />
        </mxCell>
        <mxCell id="M5KZb2mIDth6haTazwBI-5" value="Provider" style="rounded=0;whiteSpace=wrap;html=1;" vertex="1" parent="1">
          <mxGeometry x="640" y="40" width="120" height="40" as="geometry" />
        </mxCell>
        <mxCell id="M5KZb2mIDth6haTazwBI-6" value="" style="endArrow=none;dashed=1;html=1;dashPattern=1 3;strokeWidth=2;rounded=0;entryX=0.5;entryY=1;entryDx=0;entryDy=0;" edge="1" parent="1" source="M5KZb2mIDth6haTazwBI-15">
          <mxGeometry width="50" height="50" relative="1" as="geometry">
            <mxPoint x="300" y="720" as="sourcePoint" />
            <mxPoint x="299.5" y="80" as="targetPoint" />
          </mxGeometry>
        </mxCell>
        <mxCell id="M5KZb2mIDth6haTazwBI-7" value="" style="endArrow=none;dashed=1;html=1;dashPattern=1 3;strokeWidth=2;rounded=0;entryX=0.5;entryY=1;entryDx=0;entryDy=0;" edge="1" parent="1">
          <mxGeometry width="50" height="50" relative="1" as="geometry">
            <mxPoint x="500" y="720" as="sourcePoint" />
            <mxPoint x="499.5" y="80" as="targetPoint" />
          </mxGeometry>
        </mxCell>
        <mxCell id="M5KZb2mIDth6haTazwBI-8" value="" style="endArrow=none;dashed=1;html=1;dashPattern=1 3;strokeWidth=2;rounded=0;entryX=0.5;entryY=1;entryDx=0;entryDy=0;" edge="1" parent="1" target="M5KZb2mIDth6haTazwBI-5">
          <mxGeometry width="50" height="50" relative="1" as="geometry">
            <mxPoint x="700" y="720" as="sourcePoint" />
            <mxPoint x="130" y="110" as="targetPoint" />
          </mxGeometry>
        </mxCell>
        <mxCell id="M5KZb2mIDth6haTazwBI-9" value="" style="endArrow=classic;html=1;rounded=0;entryX=0.08;entryY=1.15;entryDx=0;entryDy=0;entryPerimeter=0;" edge="1" parent="1" target="M5KZb2mIDth6haTazwBI-15">
          <mxGeometry width="50" height="50" relative="1" as="geometry">
            <mxPoint x="100" y="160" as="sourcePoint" />
            <mxPoint x="300" y="160" as="targetPoint" />
          </mxGeometry>
        </mxCell>
        <mxCell id="M5KZb2mIDth6haTazwBI-10" value="/search (key word)" style="text;html=1;align=center;verticalAlign=middle;resizable=0;points=[];autosize=1;strokeColor=none;fillColor=none;" vertex="1" parent="1">
          <mxGeometry x="140" y="130" width="120" height="30" as="geometry" />
        </mxCell>
        <mxCell id="M5KZb2mIDth6haTazwBI-12" value="" style="shape=datastore;whiteSpace=wrap;html=1;" vertex="1" parent="1">
          <mxGeometry x="680" y="10" width="30" height="30" as="geometry" />
        </mxCell>
        <mxCell id="M5KZb2mIDth6haTazwBI-13" value="&lt;div&gt;&lt;br&gt;&lt;/div&gt;&lt;div&gt;&lt;br&gt;&lt;/div&gt;" style="shape=umlActor;verticalLabelPosition=bottom;verticalAlign=top;html=1;outlineConnect=0;" vertex="1" parent="1">
          <mxGeometry x="92" y="10" width="16" height="30" as="geometry" />
        </mxCell>
        <mxCell id="M5KZb2mIDth6haTazwBI-16" value="" style="endArrow=none;dashed=1;html=1;dashPattern=1 3;strokeWidth=2;rounded=0;" edge="1" parent="1" source="M5KZb2mIDth6haTazwBI-47">
          <mxGeometry width="50" height="50" relative="1" as="geometry">
            <mxPoint x="300" y="720" as="sourcePoint" />
            <mxPoint x="300" y="330" as="targetPoint" />
          </mxGeometry>
        </mxCell>
        <mxCell id="M5KZb2mIDth6haTazwBI-15" value="Get Ids API" style="rounded=0;whiteSpace=wrap;html=1;rotation=90;" vertex="1" parent="1">
          <mxGeometry x="212.5" y="222.5" width="175" height="20" as="geometry" />
        </mxCell>
        <mxCell id="M5KZb2mIDth6haTazwBI-18" value="" style="rounded=0;whiteSpace=wrap;html=1;rotation=90;" vertex="1" parent="1">
          <mxGeometry x="412.5" y="222.5" width="175" height="20" as="geometry" />
        </mxCell>
        <mxCell id="M5KZb2mIDth6haTazwBI-19" value="" style="endArrow=classic;html=1;rounded=0;exitX=0.073;exitY=-0.1;exitDx=0;exitDy=0;exitPerimeter=0;entryX=0.08;entryY=1;entryDx=0;entryDy=0;entryPerimeter=0;" edge="1" parent="1" source="M5KZb2mIDth6haTazwBI-15" target="M5KZb2mIDth6haTazwBI-18">
          <mxGeometry width="50" height="50" relative="1" as="geometry">
            <mxPoint x="390" y="440" as="sourcePoint" />
            <mxPoint x="490" y="173" as="targetPoint" />
          </mxGeometry>
        </mxCell>
        <mxCell id="M5KZb2mIDth6haTazwBI-20" value="get movie by key word" style="text;html=1;align=center;verticalAlign=middle;resizable=0;points=[];autosize=1;strokeColor=none;fillColor=none;" vertex="1" parent="1">
          <mxGeometry x="330" y="130" width="140" height="30" as="geometry" />
        </mxCell>
        <mxCell id="M5KZb2mIDth6haTazwBI-22" value="" style="curved=1;endArrow=classic;html=1;rounded=0;fillColor=#e51400;strokeColor=#B20000;" edge="1" parent="1">
          <mxGeometry width="50" height="50" relative="1" as="geometry">
            <mxPoint x="314" y="180" as="sourcePoint" />
            <mxPoint x="310" y="230" as="targetPoint" />
            <Array as="points">
              <mxPoint x="314" y="180" />
              <mxPoint x="370" y="200" />
            </Array>
          </mxGeometry>
        </mxCell>
        <mxCell id="M5KZb2mIDth6haTazwBI-29" value="error" style="edgeLabel;html=1;align=center;verticalAlign=middle;resizable=0;points=[];fontFamily=Helvetica;fontSize=11;fontColor=#FF4112;labelBackgroundColor=default;" vertex="1" connectable="0" parent="M5KZb2mIDth6haTazwBI-22">
          <mxGeometry x="-0.4621" y="-9" relative="1" as="geometry">
            <mxPoint as="offset" />
          </mxGeometry>
        </mxCell>
        <mxCell id="M5KZb2mIDth6haTazwBI-31" value="" style="endArrow=classic;html=1;rounded=0;strokeColor=#B20000;align=center;verticalAlign=middle;fontFamily=Helvetica;fontSize=11;fontColor=default;labelBackgroundColor=default;curved=1;fillColor=#e51400;dashed=1;" edge="1" parent="1">
          <mxGeometry width="50" height="50" relative="1" as="geometry">
            <mxPoint x="288" y="230" as="sourcePoint" />
            <mxPoint x="100" y="228" as="targetPoint" />
          </mxGeometry>
        </mxCell>
        <mxCell id="M5KZb2mIDth6haTazwBI-34" value="Error" style="edgeLabel;html=1;align=center;verticalAlign=middle;resizable=0;points=[];fontFamily=Helvetica;fontSize=11;fontColor=#FF4112;labelBackgroundColor=default;" vertex="1" connectable="0" parent="M5KZb2mIDth6haTazwBI-31">
          <mxGeometry x="-0.0851" y="1" relative="1" as="geometry">
            <mxPoint as="offset" />
          </mxGeometry>
        </mxCell>
        <mxCell id="M5KZb2mIDth6haTazwBI-36" value="" style="endArrow=classic;html=1;rounded=0;exitX=0.954;exitY=1.1;exitDx=0;exitDy=0;exitPerimeter=0;" edge="1" parent="1" source="M5KZb2mIDth6haTazwBI-18">
          <mxGeometry width="50" height="50" relative="1" as="geometry">
            <mxPoint x="485" y="312.1600000000001" as="sourcePoint" />
            <mxPoint x="306" y="310" as="targetPoint" />
          </mxGeometry>
        </mxCell>
        <mxCell id="M5KZb2mIDth6haTazwBI-43" value="Ids" style="edgeLabel;html=1;align=center;verticalAlign=middle;resizable=0;points=[];fontFamily=Helvetica;fontSize=11;fontColor=default;labelBackgroundColor=default;" vertex="1" connectable="0" parent="M5KZb2mIDth6haTazwBI-36">
          <mxGeometry x="0.0383" y="1" relative="1" as="geometry">
            <mxPoint as="offset" />
          </mxGeometry>
        </mxCell>
        <mxCell id="M5KZb2mIDth6haTazwBI-37" value="" style="edgeStyle=elbowEdgeStyle;elbow=horizontal;endArrow=classic;html=1;curved=0;rounded=0;endSize=8;startSize=8;strokeColor=#B20000;align=center;verticalAlign=middle;fontFamily=Helvetica;fontSize=11;fontColor=default;labelBackgroundColor=default;fillColor=#e51400;" edge="1" parent="1">
          <mxGeometry width="50" height="50" relative="1" as="geometry">
            <mxPoint x="490" y="310" as="sourcePoint" />
            <mxPoint x="310" y="267" as="targetPoint" />
            <Array as="points">
              <mxPoint x="421.25" y="290" />
            </Array>
          </mxGeometry>
        </mxCell>
        <mxCell id="M5KZb2mIDth6haTazwBI-38" value="Not Found" style="edgeLabel;html=1;align=center;verticalAlign=middle;resizable=0;points=[];fontFamily=Helvetica;fontSize=11;fontColor=#FF4112;labelBackgroundColor=default;" vertex="1" connectable="0" parent="M5KZb2mIDth6haTazwBI-37">
          <mxGeometry x="0.2928" relative="1" as="geometry">
            <mxPoint as="offset" />
          </mxGeometry>
        </mxCell>
        <mxCell id="M5KZb2mIDth6haTazwBI-40" value="" style="endArrow=classic;html=1;rounded=0;strokeColor=#B20000;align=center;verticalAlign=middle;fontFamily=Helvetica;fontSize=11;fontColor=default;labelBackgroundColor=default;curved=1;fillColor=#e51400;exitX=0.224;exitY=1.1;exitDx=0;exitDy=0;exitPerimeter=0;dashed=1;" edge="1" parent="1">
          <mxGeometry width="50" height="50" relative="1" as="geometry">
            <mxPoint x="288" y="270" as="sourcePoint" />
            <mxPoint x="100" y="270" as="targetPoint" />
          </mxGeometry>
        </mxCell>
        <mxCell id="M5KZb2mIDth6haTazwBI-42" value="Not Found" style="edgeLabel;html=1;align=center;verticalAlign=middle;resizable=0;points=[];fontFamily=Helvetica;fontSize=11;fontColor=default;labelBackgroundColor=default;" vertex="1" connectable="0" parent="M5KZb2mIDth6haTazwBI-40">
          <mxGeometry x="-0.0532" y="-1" relative="1" as="geometry">
            <mxPoint as="offset" />
          </mxGeometry>
        </mxCell>
        <mxCell id="M5KZb2mIDth6haTazwBI-48" value="" style="endArrow=none;dashed=1;html=1;dashPattern=1 3;strokeWidth=2;rounded=0;" edge="1" parent="1" target="M5KZb2mIDth6haTazwBI-47">
          <mxGeometry width="50" height="50" relative="1" as="geometry">
            <mxPoint x="300" y="720" as="sourcePoint" />
            <mxPoint x="300" y="330" as="targetPoint" />
          </mxGeometry>
        </mxCell>
        <mxCell id="M5KZb2mIDth6haTazwBI-47" value="Get Movie API" style="rounded=0;whiteSpace=wrap;html=1;rotation=90;" vertex="1" parent="1">
          <mxGeometry x="212.5" y="470" width="175" height="20" as="geometry" />
        </mxCell>
        <mxCell id="M5KZb2mIDth6haTazwBI-49" value="" style="endArrow=classic;html=1;rounded=0;strokeColor=#000000;align=center;verticalAlign=middle;fontFamily=Helvetica;fontSize=11;fontColor=default;labelBackgroundColor=default;curved=1;fillColor=#e51400;exitX=1;exitY=0.5;exitDx=0;exitDy=0;entryX=0;entryY=0.5;entryDx=0;entryDy=0;strokeWidth=2;" edge="1" parent="1" source="M5KZb2mIDth6haTazwBI-15" target="M5KZb2mIDth6haTazwBI-47">
          <mxGeometry width="50" height="50" relative="1" as="geometry">
            <mxPoint x="390" y="440" as="sourcePoint" />
            <mxPoint x="440" y="390" as="targetPoint" />
          </mxGeometry>
        </mxCell>
        <mxCell id="M5KZb2mIDth6haTazwBI-50" value="Ids" style="text;html=1;align=center;verticalAlign=middle;resizable=0;points=[];autosize=1;strokeColor=none;fillColor=none;fontFamily=Helvetica;fontSize=11;fontColor=default;labelBackgroundColor=default;" vertex="1" parent="1">
          <mxGeometry x="290" y="328" width="40" height="30" as="geometry" />
        </mxCell>
        <mxCell id="M5KZb2mIDth6haTazwBI-55" value="" style="html=1;points=[[0,0,0,0,5],[0,1,0,0,-5],[1,0,0,0,5],[1,1,0,0,-5]];perimeter=orthogonalPerimeter;outlineConnect=0;targetShapes=umlLifeline;portConstraint=eastwest;newEdgeStyle={&quot;curved&quot;:0,&quot;rounded&quot;:0};fontFamily=Helvetica;fontSize=11;fontColor=default;labelBackgroundColor=default;" vertex="1" parent="1">
          <mxGeometry x="690" y="400" width="20" height="160" as="geometry" />
        </mxCell>
        <mxCell id="M5KZb2mIDth6haTazwBI-57" value="return founded Ids" style="html=1;verticalAlign=bottom;endArrow=open;dashed=1;endSize=8;curved=0;rounded=0;strokeColor=#B20000;align=center;fontFamily=Helvetica;fontSize=11;fontColor=default;labelBackgroundColor=default;fillColor=#e51400;exitX=0;exitY=1;exitDx=0;exitDy=-5;exitPerimeter=0;" edge="1" source="M5KZb2mIDth6haTazwBI-55" parent="1">
          <mxGeometry relative="1" as="geometry">
            <mxPoint x="320" y="555" as="targetPoint" />
          </mxGeometry>
        </mxCell>
        <mxCell id="M5KZb2mIDth6haTazwBI-58" value="" style="endArrow=classic;html=1;rounded=0;strokeColor=#000000;align=center;verticalAlign=middle;fontFamily=Helvetica;fontSize=11;fontColor=default;labelBackgroundColor=default;curved=1;fillColor=#e51400;exitX=0.083;exitY=-0.2;exitDx=0;exitDy=0;exitPerimeter=0;entryX=0;entryY=0;entryDx=0;entryDy=5;entryPerimeter=0;" edge="1" parent="1" source="M5KZb2mIDth6haTazwBI-47" target="M5KZb2mIDth6haTazwBI-55">
          <mxGeometry width="50" height="50" relative="1" as="geometry">
            <mxPoint x="390" y="440" as="sourcePoint" />
            <mxPoint x="440" y="390" as="targetPoint" />
          </mxGeometry>
        </mxCell>
        <mxCell id="M5KZb2mIDth6haTazwBI-60" value="fetch All ids" style="text;html=1;align=center;verticalAlign=middle;resizable=0;points=[];autosize=1;strokeColor=none;fillColor=none;fontFamily=Helvetica;fontSize=11;fontColor=default;labelBackgroundColor=default;" vertex="1" parent="1">
          <mxGeometry x="410" y="378" width="80" height="30" as="geometry" />
        </mxCell>
        <mxCell id="M5KZb2mIDth6haTazwBI-61" value="" style="curved=1;endArrow=classic;html=1;rounded=0;fillColor=#e51400;strokeColor=#B20000;" edge="1" parent="1">
          <mxGeometry width="50" height="50" relative="1" as="geometry">
            <mxPoint x="314" y="408" as="sourcePoint" />
            <mxPoint x="310" y="458" as="targetPoint" />
            <Array as="points">
              <mxPoint x="314" y="408" />
              <mxPoint x="370" y="428" />
            </Array>
          </mxGeometry>
        </mxCell>
        <mxCell id="M5KZb2mIDth6haTazwBI-62" value="error" style="edgeLabel;html=1;align=center;verticalAlign=middle;resizable=0;points=[];fontFamily=Helvetica;fontSize=11;fontColor=#FF4112;labelBackgroundColor=default;" vertex="1" connectable="0" parent="M5KZb2mIDth6haTazwBI-61">
          <mxGeometry x="-0.4621" y="-9" relative="1" as="geometry">
            <mxPoint as="offset" />
          </mxGeometry>
        </mxCell>
        <mxCell id="M5KZb2mIDth6haTazwBI-65" value="" style="endArrow=classic;html=1;rounded=0;strokeColor=#B20000;align=center;verticalAlign=middle;fontFamily=Helvetica;fontSize=11;fontColor=default;labelBackgroundColor=default;curved=1;fillColor=#e51400;exitX=0.224;exitY=1.1;exitDx=0;exitDy=0;exitPerimeter=0;dashed=1;" edge="1" parent="1">
          <mxGeometry width="50" height="50" relative="1" as="geometry">
            <mxPoint x="290" y="510" as="sourcePoint" />
            <mxPoint x="102" y="510" as="targetPoint" />
          </mxGeometry>
        </mxCell>
        <mxCell id="M5KZb2mIDth6haTazwBI-66" value="Not Found" style="edgeLabel;html=1;align=center;verticalAlign=middle;resizable=0;points=[];fontFamily=Helvetica;fontSize=11;fontColor=default;labelBackgroundColor=default;" vertex="1" connectable="0" parent="M5KZb2mIDth6haTazwBI-65">
          <mxGeometry x="-0.0532" y="-1" relative="1" as="geometry">
            <mxPoint as="offset" />
          </mxGeometry>
        </mxCell>
        <mxCell id="M5KZb2mIDth6haTazwBI-67" value="" style="endArrow=classic;html=1;rounded=0;strokeColor=#B20000;align=center;verticalAlign=middle;fontFamily=Helvetica;fontSize=11;fontColor=default;labelBackgroundColor=default;curved=1;fillColor=#e51400;dashed=1;" edge="1" parent="1">
          <mxGeometry width="50" height="50" relative="1" as="geometry">
            <mxPoint x="288" y="452" as="sourcePoint" />
            <mxPoint x="100" y="450" as="targetPoint" />
          </mxGeometry>
        </mxCell>
        <mxCell id="M5KZb2mIDth6haTazwBI-68" value="Error" style="edgeLabel;html=1;align=center;verticalAlign=middle;resizable=0;points=[];fontFamily=Helvetica;fontSize=11;fontColor=#FF4112;labelBackgroundColor=default;" vertex="1" connectable="0" parent="M5KZb2mIDth6haTazwBI-67">
          <mxGeometry x="-0.0851" y="1" relative="1" as="geometry">
            <mxPoint as="offset" />
          </mxGeometry>
        </mxCell>
        <mxCell id="M5KZb2mIDth6haTazwBI-69" value="" style="edgeStyle=elbowEdgeStyle;elbow=horizontal;endArrow=classic;html=1;curved=0;rounded=0;endSize=8;startSize=8;strokeColor=#B20000;align=center;verticalAlign=middle;fontFamily=Helvetica;fontSize=11;fontColor=default;labelBackgroundColor=default;fillColor=#e51400;entryX=0.671;entryY=-0.1;entryDx=0;entryDy=0;entryPerimeter=0;" edge="1" parent="1" target="M5KZb2mIDth6haTazwBI-47">
          <mxGeometry width="50" height="50" relative="1" as="geometry">
            <mxPoint x="690" y="553" as="sourcePoint" />
            <mxPoint x="510" y="510" as="targetPoint" />
            <Array as="points">
              <mxPoint x="560" y="530" />
            </Array>
          </mxGeometry>
        </mxCell>
        <mxCell id="M5KZb2mIDth6haTazwBI-70" value="Not Found" style="edgeLabel;html=1;align=center;verticalAlign=middle;resizable=0;points=[];fontFamily=Helvetica;fontSize=11;fontColor=#FF4112;labelBackgroundColor=default;" vertex="1" connectable="0" parent="M5KZb2mIDth6haTazwBI-69">
          <mxGeometry x="0.2928" relative="1" as="geometry">
            <mxPoint as="offset" />
          </mxGeometry>
        </mxCell>
        <mxCell id="M5KZb2mIDth6haTazwBI-71" value="Ids &amp;gt; 0" style="text;html=1;align=center;verticalAlign=middle;resizable=0;points=[];autosize=1;strokeColor=none;fillColor=none;fontFamily=Helvetica;fontSize=11;fontColor=default;labelBackgroundColor=default;" vertex="1" parent="1">
          <mxGeometry x="590" y="528" width="60" height="30" as="geometry" />
        </mxCell>
        <mxCell id="M5KZb2mIDth6haTazwBI-72" value="" style="endArrow=classic;html=1;rounded=0;strokeColor=#000000;align=center;verticalAlign=middle;fontFamily=Helvetica;fontSize=11;fontColor=default;labelBackgroundColor=default;curved=1;fillColor=#e51400;exitX=0.957;exitY=1;exitDx=0;exitDy=0;exitPerimeter=0;" edge="1" parent="1" source="M5KZb2mIDth6haTazwBI-47">
          <mxGeometry width="50" height="50" relative="1" as="geometry">
            <mxPoint x="440" y="440" as="sourcePoint" />
            <mxPoint x="100" y="560" as="targetPoint" />
          </mxGeometry>
        </mxCell>
        <mxCell id="M5KZb2mIDth6haTazwBI-73" value="Results" style="text;html=1;align=center;verticalAlign=middle;resizable=0;points=[];autosize=1;strokeColor=none;fillColor=none;fontFamily=Helvetica;fontSize=11;fontColor=default;labelBackgroundColor=default;" vertex="1" parent="1">
          <mxGeometry x="170" y="530" width="60" height="30" as="geometry" />
        </mxCell>
      </root>
    </mxGraphModel>
  </diagram>
</mxfile>
